<svg width="28" height="34" viewBox="0 0 28 34" fill="none" xmlns="http://www.w3.org/2000/svg">
<path d="M22.0469 9.37898C21.9404 9.30858 21.814 9.27441 21.6865 9.28153C21.559 9.28866 21.4372 9.3367 21.3391 9.41854C21.2411 9.50037 21.172 9.61163 21.1422 9.73581C21.1124 9.85998 21.1235 9.99046 21.1737 10.1079C21.5659 10.9748 21.7422 11.9238 21.6876 12.8738C21.633 13.8237 21.349 14.7463 20.86 15.5625C18.9217 6.2501 14.6546 0.83314 14.4656 0.596531C14.3987 0.514671 14.3115 0.451784 14.2127 0.414143C14.1139 0.376502 14.007 0.365422 13.9026 0.382009C13.7982 0.399754 13.7004 0.445066 13.6193 0.513261C13.5383 0.581456 13.477 0.670058 13.4416 0.769906C13.419 0.834268 11.1141 7.24226 5.92477 11.1823C0.692347 15.1555 0.928957 20.3759 0.940535 20.5621C0.936873 22.2796 1.272 23.981 1.92674 25.5689C2.58148 27.1567 3.54297 28.5999 4.75617 29.8157C5.96936 31.0314 7.41044 31.996 8.99689 32.6541C10.5834 33.3122 12.284 33.651 14.0016 33.651C15.7191 33.651 17.4198 33.3122 19.0063 32.6541C20.5927 31.996 22.0338 31.0314 23.247 29.8157C24.4602 28.5999 25.4217 27.1567 26.0764 25.5689C26.7312 23.981 27.0663 22.2796 27.0626 20.5621V20.5493C26.8938 12.6737 22.2446 9.51002 22.0469 9.37898ZM14 32.4375C12.5832 32.4359 11.2249 31.8724 10.2231 30.8706C9.22133 29.8688 8.65783 28.5105 8.65626 27.0938C8.65626 22.7101 13.3581 17.4201 13.5582 17.1968C13.6154 17.1374 13.684 17.0902 13.76 17.0579C13.8359 17.0256 13.9175 17.0089 14 17.0089C14.0825 17.0089 14.1641 17.0256 14.2401 17.0579C14.316 17.0902 14.3846 17.1374 14.4418 17.1968C14.6419 17.4198 19.3438 22.7099 19.3438 27.0938C19.3422 28.5105 18.7787 29.8688 17.7769 30.8706C16.7751 31.8724 15.4168 32.4359 14 32.4375Z" fill="#FF6D43"/>
</svg>
